# xmcd
# Track frame offsets:
# 150
# 21343
# 38378
# 58561
# 75735
# 91437
# 110239
# 127668
# 142502
# 157284
# 175989
# 191191
# 203337
# 221021
# 233011
# 252533
#
# Disc length: 3647 seconds
# Revision: 0
# Processed by: cddbd v1.5PL3 Copyright (c) Steve Scherf et al.
# Submitted via: VisiTrax 2.9.9.209 - For more info visit www.synapsa.com
#
DISCID=d70e3d10
DTITLE=Steve Cherelle - WONDERFUL TODAYS
DYEAR=1900
DGENRE=country
TTITLE0=Wonderful Todays
TTITLE1=Black Coffee
TTITLE2=Back Home Again
TTITLE3=What Colour Is The Wind
TTITLE4=Fly Like A Bird
TTITLE5=Neon Moon
TTITLE6=Funny
TTITLE7=Forever In Blue Jeans
TTITLE8=Country Club
TTITLE9=Peaceful Easy Feeling
TTITLE10=Speed Of The Sound Of Loneliness
TTITLE11=Staying Out
TTITLE12=Absent Freinds
TTITLE13=Annies Song
TTITLE14=Wonderful Tonight
TTITLE15=Wonderful Todays (instrumental)
EXTD=
EXTT0=
EXTT1=
EXTT2=
EXTT3=
EXTT4=
EXTT5=
EXTT6=
EXTT7=
EXTT8=
EXTT9=
EXTT10=
EXTT11=
EXTT12=
EXTT13=
EXTT14=
EXTT15=
PLAYORDER=
